<?xml version="1.0" standalone="no"?>
<!DOCTYPE svg PUBLIC "-//W3C//DTD SVG 1.1//EN" "http://www.w3.org/Graphics/SVG/1.1/DTD/svg11.dtd">
<svg xmlns="http://www.w3.org/2000/svg">
<metadata>Copyright (C) 2016 by original authors @ fontello.com</metadata>
<defs>
<font id="fontello" horiz-adv-x="1000" >
<font-face font-family="fontello" font-weight="400" font-stretch="normal" units-per-em="1000" ascent="850" descent="-150" />
<missing-glyph horiz-adv-x="1000" />
<glyph glyph-name="uniE696" unicode="&#xe800;" d="M875 700h-800c-21 0-38-7-53-22s-22-32-22-53v-450c0-21 7-38 22-53s32-22 53-22h800c21 0 39 7 53 22s22 32 22 53v450c0 21-7 39-22 53s-32 22-53 22v0z m0-50c1 0 1 0 2 0s2 0 2 0l-376-251c-8-5-17-7-28-7s-21 2-28 7l-376 251c1 0 1 0 2 0s1 0 2 0h800v0z m0-500h-800c-7 0-13 3-18 8s-7 10-7 17v428l369-246c8-5 17-9 27-11s19-4 29-4c10 0 20 1 29 4s19 6 26 11l370 246v-428c0-7-2-12-7-17s-11-8-18-8v0z" horiz-adv-x="1000" />
<glyph glyph-name="uniE695" unicode="&#xe801;" d="M854 854c-24 23-49 44-77 62s-56 34-86 46-60 22-93 29-64 9-98 9-66-3-98-9-63-16-93-29-59-27-86-46-53-39-76-62c-24-24-45-49-63-76s-34-56-46-86-22-61-28-93-10-65-10-99c0-33 3-66 10-98s15-63 28-93 28-59 46-86 39-53 63-76c23-24 48-45 76-63s56-34 86-46 61-22 93-28 65-10 98-10c20 0 39 2 58 4s38 5 57 9 37 10 55 17 36 14 53 23c17 8 33 17 49 28s30 21 45 32 28 25 41 38 25 28 37 42c4 6 6 12 5 19s-4 12-10 16c-5 5-11 6-18 6s-12-4-16-10c-22-28-46-52-73-74s-55-39-85-54-62-26-96-34-67-12-102-12c-62 0-120 12-175 36s-102 55-143 96-73 88-97 143-35 113-35 175c0 62 12 121 35 175s56 103 97 143 88 73 143 97 113 35 175 35 121-12 175-35 102-56 143-97 73-88 97-143 35-113 35-175c0-22-3-42-9-60s-15-35-26-48-24-23-39-31-33-11-51-11c-17 0-33 3-49 10s-28 16-39 27-20 24-27 39-10 32-10 49v200c0 7-2 13-7 18s-11 7-18 7c-7 0-13-2-18-7s-7-11-7-18v-43c-9 11-19 20-31 29s-23 15-35 21-26 10-40 14-29 4-44 4c-28 0-54-5-78-15s-45-25-63-43-33-40-43-64-16-50-16-78c0-27 5-53 16-77s25-46 43-64 39-33 63-43 50-16 78-16c18 0 35 3 52 7s32 11 46 19 28 18 40 30 23 24 32 38c7-14 16-26 27-38s23-21 36-30 28-14 43-19 32-7 49-7c24 0 47 5 69 15s40 23 56 40c16 19 29 41 37 65s13 51 13 80c0 34-3 66-9 99s-16 63-29 93-28 58-46 86-39 52-62 76v0z m-354-504c-21 0-40 4-58 12s-34 19-48 32-24 30-32 48-12 38-12 58c0 21 4 40 12 59s18 34 32 47 30 24 48 32 37 12 58 12 40-4 58-12 34-18 48-32 24-29 32-47 12-38 12-59c0-20-4-40-12-58s-18-34-32-48-30-24-48-32-37-12-58-12v0z" horiz-adv-x="1000" />
<glyph glyph-name="uniE699" unicode="&#xe802;" d="M992 944c-4 3-8 5-13 6s-9 0-14-2l-950-400c-4-2-8-5-11-9s-4-9-4-15 2-10 5-14 7-7 12-9l283-94v-282c0-5 1-10 4-14s8-8 12-9c2-1 4-1 5-1s3-1 4-1c4 0 7 1 11 2s6 4 8 7l138 171 226-222c2-3 5-4 8-6s6-2 9-2c1 0 2 0 3 0s2 1 3 1c5 1 8 3 11 6s6 7 7 11l250 850c1 5 1 10 0 14s-4 9-7 12v0z m-185-117l-487-374-224 75 711 299v0z m-457-414l471 362-360-443v0 0l-111-136v217 0z m363-290l-199 195 402 495-203-690v0z" horiz-adv-x="1000" />
<glyph glyph-name="uniE60B" unicode="&#xe803;" d="M450 500h50v-50h-50v50 0z m100 0h50v-50h-50v50 0z m100 0h50v-50h-50v50 0z m100 0h50v-50h-50v50 0z m-300-150h50v-50h-50v50 0z m100 0h50v-50h-50v50 0z m100 0h50v-50h-50v50 0z m100 0h50v-50h-50v50 0z m-300-150h50v-50h-50v50 0z m100 0h50v-50h-50v50 0z m100 0h50v-50h-50v50 0z m100 0h50v-50h-50v50 0z m125 450h-25v125c0 4-1 7-2 10s-3 6-5 8l-93 93v89c0 7-2 13-7 18s-11 7-18 7-13-2-17-7-8-11-8-18v-89l-93-93c-2-2-4-5-5-8s-2-6-2-10v-25h-100v125c0 7-2 13-7 18s-11 7-18 7h-400c-7 0-13-2-18-7s-7-11-7-18v-850c0-6 2-12 7-17s11-8 18-8h800c7 0 13 3 18 8s7 11 7 17v600c0 7-2 13-7 18s-11 7-18 7v0z m-225 115l75 75 75-75v-115h-50v75c0 7-2 13-7 18s-11 7-18 7h-75v15 0z m50-65v-50h-200v50h200v0z m-350-75v-575h-250v800h350v-200h-75c-7 0-13-2-18-7s-7-11-7-18v0z m500-575h-450v550h450v-550 0z m-500 750h50v-100h-50v100 0z m-100 0h50v-100h-50v100 0z m-100 0h50v-100h-50v100 0z m0-150h50v-100h-50v100 0z m100 0h50v-100h-50v100 0z m-100-150h50v-100h-50v100 0z m100 0h50v-100h-50v100 0z m-100-150h50v-100h-50v100 0z m100 0h50v-100h-50v100 0z m-100-150h50v-100h-50v100 0z m100 0h50v-100h-50v100 0z" horiz-adv-x="1000" />
<glyph glyph-name="uniE76A" unicode="&#xe804;" d="M800 0c-22 0-45 2-68 5s-45 8-69 14-47 14-71 23-48 20-72 33c-22 11-45 24-67 38s-44 28-65 44-43 33-64 51-41 36-60 56c-19 19-38 39-56 60s-35 42-50 64-31 43-45 65-26 45-38 67c-12 24-23 49-32 72s-17 48-23 72-11 46-15 69-4 45-4 67c0 15 2 29 8 42s13 27 21 39 17 22 25 31 16 17 22 22c8 8 18 16 28 23s21 15 32 22 22 11 33 15 21 6 30 6c9 0 20-3 31-9s24-16 39-30c10-9 21-21 33-34s23-27 35-43l20-26c9-13 19-27 29-43s19-32 26-48 12-31 12-42c0-19-9-35-27-49s-38-28-60-42l-25-16c-9-5-16-10-23-16-7-5-11-9-13-12s-4-5-4-6c12-29 29-60 52-91s49-62 77-90 59-55 90-77 62-41 92-53c1 1 2 2 5 4s8 6 13 13c5 7 11 14 16 22l16 26c14 23 28 43 42 61s30 26 49 26c12 0 25-4 42-11s32-17 48-27 30-19 43-29l26-19c16-12 30-24 43-36s25-23 34-34c13-14 23-27 30-38s9-21 9-31-2-19-6-30-9-22-16-33-13-22-21-32-15-20-23-28c-5-6-12-13-22-22s-19-17-31-25-25-15-39-21-28-9-42-9v0z m-600 950c-7 0-19-4-35-13s-34-21-54-40c-19-17-33-34-44-52s-16-32-16-45c0-84 23-170 70-259s106-169 178-242 154-132 242-179 175-70 259-70c13 0 28 6 46 17s34 25 51 44c18 20 32 38 40 54s13 28 13 35c-1 5-9 16-23 34s-41 40-77 68c-15 12-30 22-44 31s-26 17-37 23-20 11-27 14-14 5-17 5c0 0-2-1-5-3s-7-6-12-14c-5-6-10-13-16-21l-15-25c-14-23-28-43-43-61s-31-27-50-27c-3 0-6 0-9 0s-6 2-9 3c-33 13-67 32-101 57s-67 52-98 83-59 64-84 98-43 68-56 101c-3 8-4 18-2 29s10 25 26 40c8 7 17 14 28 21l33 21 24 15c9 6 16 11 22 15 8 6 12 11 14 14s3 4 3 5c0 3-2 8-5 16s-8 17-14 28-14 23-23 37-19 28-31 44c-28 35-51 61-69 76s-28 22-33 23v0z" horiz-adv-x="1000" />
<glyph glyph-name="uniE7B6" unicode="&#xe805;" d="M675 100c-31 0-60 6-88 18s-51 28-71 48-36 44-48 72-18 56-18 87 6 60 18 88 28 51 48 71 44 37 71 48 57 18 88 18c31 0 60-6 88-18s51-28 71-48 37-44 48-71 18-57 18-88-6-60-18-87-27-51-48-72-44-36-71-48-57-18-88-18v0z m0 400c-24 0-47-4-68-13s-40-22-56-38-28-34-37-56-14-44-14-68 5-47 14-68 21-39 37-55 35-29 56-38 44-14 68-14c24 0 47 5 68 14s40 22 56 38 28 34 37 55 14 44 14 68-4 47-14 68-22 40-37 56-35 28-56 38-44 13-68 13v0z m-425-150c-14 0-27 3-39 8s-23 13-32 22-16 19-21 31-8 25-8 39c0 14 3 27 8 39s12 23 21 32 20 16 32 21 25 8 39 8 27-2 39-8 23-12 32-21 16-20 21-32 8-25 8-39c0-14-2-26-8-39s-12-22-21-31-20-17-32-22-25-8-39-8v0z m0 150c-14 0-25-4-35-14s-15-22-15-36c0-14 5-25 15-35s21-15 35-15 25 5 35 15 15 21 15 35c0 14-5 26-15 36s-21 14-35 14v0z m625 100h-100c-7 0-13 2-18 7s-7 11-7 18c0 7 2 13 7 18s11 7 18 7h100c7 0 13-2 18-7s7-11 7-18c0-7-2-13-7-18s-11-7-18-7v0z m-200 0h-500c-7 0-13 2-18 7s-7 11-7 18c0 7 2 13 7 18s11 7 18 7h500c7 0 13-2 18-7s7-11 7-18c0-7-2-13-7-18s-11-7-18-7v0z m-400-450c-21 0-38 8-53 22s-22 33-22 53c0 21 8 39 22 53s32 22 53 22c21 0 39-7 53-22s22-32 22-53c0-20-7-38-22-53s-32-22-53-22v0z m0 100c-7 0-13-2-18-7s-7-11-7-18c0-7 2-13 7-18s11-7 18-7 13 3 18 7 7 11 7 18c0 7-3 13-7 18s-11 7-18 7v0z m600 500l-565 0 524 202c7 2 11 7 14 13s3 13 0 19c-2 7-6 11-13 14s-13 3-19 0l-646-248h-45c-17 0-33-3-49-10s-28-15-39-26-21-25-27-40-10-31-10-49v-500c0-17 3-33 10-48s15-29 27-40 24-20 39-27 32-10 49-10h750c17 0 33 4 49 10s28 16 39 27 21 24 27 40 10 31 10 48v500c0 18-3 34-10 49s-15 28-27 40-24 20-39 26-32 10-49 10v0z m75-625c0-20-7-38-22-53s-32-22-53-22h-750c-21 0-39 8-53 22s-22 33-22 53v500c0 21 7 39 22 53s32 22 53 22h50v0 0h0 0 700c21 0 39-7 53-22s22-32 22-53v-500 0z m-275 175c-3 0-7 1-10 2s-5 3-8 6-4 5-5 8-2 6-2 9 1 7 2 10 3 5 5 8c3 2 5 4 8 5s7 2 10 2c3 0 7-1 10-2s5-3 8-5c2-3 4-5 5-8s2-7 2-10 0-6-2-9-3-6-5-8c-3-3-5-4-8-6s-7-2-10-2v0z m0 100c-3 0-7 1-10 2s-5 3-8 6-4 5-5 8-2 6-2 9 1 7 2 10 3 6 5 8 5 4 8 5 7 2 10 2c3 0 7-1 10-2s5-3 8-5c2-2 4-5 5-8s2-6 2-10 0-6-2-9-3-6-5-8c-3-3-5-4-8-6s-7-2-10-2v0z m-100-100c-3 0-7 1-10 2s-5 3-8 6c-2 2-4 5-5 8s-2 6-2 9 1 7 2 10 3 5 5 8c3 2 6 4 8 5s7 2 10 2c4 0 7-1 10-2s6-3 8-5c2-3 4-5 5-8s2-7 2-10-1-6-2-9-3-6-5-8-5-4-8-6-6-2-10-2v0z m100-100c-3 0-7 1-10 2s-5 3-8 5-4 5-5 9-2 6-2 9c0 4 1 7 2 10s3 6 5 8c3 2 5 4 8 5s7 2 10 2c3 0 7 0 10-2s5-3 8-5c2-2 4-5 5-8s2-6 2-10c0-3 0-6-2-9s-3-6-5-9c-3-2-5-4-8-5s-7-2-10-2v0z m100 100c-3 0-6 1-10 2s-5 3-8 6-4 5-5 8-2 6-2 9 1 7 2 10 3 5 5 8c3 2 5 4 8 5s7 2 10 2 6-1 9-2 6-3 9-5c2-3 4-5 5-8s2-7 2-10-1-6-2-9-3-6-5-8c-3-3-5-4-9-6s-6-2-9-2v0z m-200 100c-3 0-7 1-10 2s-5 3-8 6c-2 2-4 5-5 8s-2 6-2 9 1 7 2 10 3 6 5 8c3 2 6 4 8 5s7 2 10 2c4 0 7-1 10-2s6-3 8-5 4-5 5-8 2-6 2-10-1-6-2-9-3-6-5-8-5-4-8-6-6-2-10-2v0z m200 0c-3 0-6 1-10 2s-5 3-8 6-4 5-5 8-2 6-2 9 1 7 2 10 3 6 5 8 5 4 8 5 7 2 10 2 6-1 9-2 6-3 9-5c2-2 4-5 5-8s2-6 2-10-1-6-2-9-3-6-5-8c-3-3-5-4-9-6s-6-2-9-2v0z m-200-200c-3 0-7 1-10 2s-5 3-8 5c-2 3-4 5-5 9s-2 6-2 9c0 4 1 7 2 10s3 6 5 8c3 2 6 4 8 5s7 2 10 2c4 0 7 0 10-2s6-3 8-5c2-2 4-5 5-8s2-6 2-10c0-3-1-6-2-9s-3-6-5-9-5-4-8-5-6-2-10-2v0z m200 0c-3 0-6 1-10 2s-5 3-8 5-4 5-5 9-2 6-2 9c0 4 1 7 2 10s3 6 5 8c3 2 5 4 8 5s7 2 10 2 6 0 9-2 6-3 9-5c2-2 4-5 5-8s2-6 2-10c0-3-1-6-2-9s-3-6-5-9c-3-2-5-4-9-5s-6-2-9-2v0z" horiz-adv-x="1000" />
<glyph glyph-name="uniE7A6" unicode="&#xe806;" d="M525 100h-50c-7 0-13 2-17 7s-8 11-8 18c0 7 3 13 8 18s10 7 17 7h50c7 0 13-2 18-7s7-11 7-18c0-7-3-13-7-18s-11-7-18-7v0z m200-100h-450c-21 0-38 8-53 22s-22 33-22 53v850c0 21 8 39 22 53s32 22 53 22h450c21 0 38-7 53-22s22-32 22-53v-850c0-20-7-38-22-53s-32-22-53-22v0z m-450 950c-7 0-13-2-18-7s-7-11-7-18v-850c0-7 2-13 7-17s11-8 18-8h450c7 0 13 3 18 8s7 10 7 17v850c0 7-2 13-7 18s-11 7-18 7h-450v0z m400-750h-350c-7 0-13 3-18 7s-7 11-7 18v650c0 7 2 13 7 18s11 7 18 7h350c7 0 13-2 18-7s7-11 7-18v-650c0-7-2-13-7-18s-11-7-18-7v0z m-325 50h300v600h-300v-600 0z" horiz-adv-x="1000" />
<glyph glyph-name="uniE7B5" unicode="&#xe807;" d="M925 750l-359 0 176 157c5 4 8 10 8 17s-2 13-6 18-11 8-17 8-13-2-18-6l-209-186-159 136c-5 5-11 7-18 6s-12-3-17-8-6-12-6-19 3-12 9-17l124-106h-358c-21 0-38-7-53-22s-22-32-22-53v-600c0-20 7-38 22-53s32-22 53-22h850c21 0 38 8 53 22s22 33 22 53v600c0 21-7 39-22 53s-32 22-53 22v0z m25-675c0-7-2-13-7-17s-11-8-18-8h-850c-7 0-13 3-18 8s-7 10-7 17v600c0 7 2 13 7 18s11 7 18 7h850c7 0 13-2 18-7s7-11 7-18v-600 0z m-325 25h-450c-21 0-38 7-53 22s-22 32-22 53v400c0 21 7 39 22 53s32 22 53 22h450c21 0 39-7 53-22s22-32 22-53v-400c0-21-7-38-22-53s-32-22-53-22v0z m-450 500c-7 0-13-2-18-7s-7-11-7-18v-400c0-7 2-12 7-17s11-8 18-8h450c7 0 13 3 18 8s7 10 7 17v400c0 7-2 13-7 18s-11 7-18 7h-450v0z m650-150c-21 0-38 7-53 22s-22 33-22 53c0 21 7 38 22 53s32 22 53 22c21 0 38-7 53-22s22-32 22-53c0-20-7-38-22-53s-32-22-53-22v0z m0 100c-7 0-13-2-18-7s-7-11-7-18 2-12 7-17 11-8 18-8c7 0 13 3 18 8s7 11 7 17-2 13-7 18-11 7-18 7v0z m0-300c-21 0-38 8-53 22s-22 33-22 53c0 21 7 39 22 53s32 22 53 22c21 0 38-7 53-22s22-32 22-53c0-20-7-38-22-53s-32-22-53-22v0z m0 100c-7 0-13-2-18-7s-7-11-7-18 2-13 7-17 11-8 18-8c7 0 13 3 18 8s7 10 7 17-2 13-7 18-11 7-18 7v0z" horiz-adv-x="1000" />
<glyph glyph-name="uniE7AF" unicode="&#xe808;" d="M925 950h-850c-21 0-38-7-53-22s-22-32-22-53v-650c0-20 7-38 22-53s32-22 53-22h260l-35-69c-4-8-8-14-12-20s-6-9-8-12c-6-1-10-4-14-8s-5-10-5-16c0-6 2-12 7-17s11-8 18-8h428c7 0 13 3 18 8s7 11 7 17c0 6-1 11-5 16s-8 7-14 8c-2 3-5 6-8 12s-8 12-12 20l-34 69h259c21 0 38 8 53 22s22 33 22 53v650c0 21-7 39-22 53s-32 22-53 22v0z m-850-50h850c7 0 13-2 18-7s7-11 7-18v-475h-900v475c0 7 2 13 7 18s11 7 18 7v0z m580-841c1-2 2-3 3-5s1-2 2-4h-320c1 2 2 3 3 4s1 3 2 5l46 91h218l46-91v0z m270 141h-850c-7 0-13 3-18 7s-7 11-7 18v125h900v-125c0-7-2-13-7-18s-11-7-18-7v0z m-400 50h-50c-7 0-13 3-17 8s-8 11-8 17 3 13 8 18 10 7 17 7h50c7 0 13-2 18-7s7-11 7-18-3-12-7-17-11-8-18-8v0z" horiz-adv-x="1000" />
<glyph glyph-name="uniE922" unicode="&#xe809;" d="M943 42l-296 324c16 18 31 37 44 57s23 41 32 63 16 44 20 68 7 47 7 71c0 26-2 50-7 74s-12 48-21 70-21 44-35 64-29 40-47 58c-17 17-36 33-57 46s-42 26-64 35-46 16-70 21-49 7-74 7-50-2-74-7-47-12-70-21-43-21-64-35-40-29-57-46c-18-18-33-37-47-58s-25-42-35-64-16-46-21-70-7-48-7-74 2-49 7-73 12-48 21-70 21-44 35-65 29-39 47-57c17-18 37-33 57-47s42-25 64-34 46-17 70-21 49-8 74-8c22 0 43 2 64 6s41 9 61 15 39 16 57 26 36 22 52 35l298-324c2-2 5-4 8-6s7-2 10-2 6 1 9 2 6 3 8 5c5 4 8 10 8 17s-2 13-7 18v0z m-893 583c0 45 8 87 25 127s41 74 70 103 64 52 104 70 81 25 126 25 87-8 127-25 73-41 103-70 53-64 70-103 25-82 25-127c0-44-8-87-25-126s-41-74-70-103-64-53-103-70-82-26-127-26-87 9-126 26-74 40-104 70-52 64-70 103-25 82-25 126v0z" horiz-adv-x="1000" />
<glyph glyph-name="uniE721" unicode="&#xe80a;" d="M475 450c-38 0-74 7-107 22s-63 34-87 59-45 54-59 87-22 69-22 107c0 38 7 74 22 107s34 63 59 88 54 44 87 59 69 21 107 21c38 0 73-7 107-21s62-34 87-59 45-54 59-88 22-69 22-107c0-38-7-73-22-107s-34-62-59-87-54-45-87-59-69-22-107-22v0z m0 500c-31 0-60-6-87-17s-51-28-72-49-36-44-48-71-18-57-18-88c0-31 6-60 18-87s28-52 48-72 44-36 72-48 56-18 87-18 60 6 88 18 51 28 71 48 37 44 48 72 18 56 18 87c0 31-6 61-18 88s-28 51-48 71-44 37-71 49-57 17-88 17v0z m100-950l-500 0c-21 0-38 8-53 22s-22 33-22 53c0 1 0 6 1 16s3 23 7 38 10 32 18 52 20 39 35 59c9 12 19 23 29 34s22 20 34 29 24 18 38 26 28 16 43 22c18 8 37 15 58 22s42 11 64 15 47 7 71 9 50 3 77 3c28 0 54-1 80-3s50-6 73-10c7-1 12-5 16-11s5-12 4-18c-1-7-5-12-10-16s-12-5-19-4c-22 4-45 7-69 9s-49 3-75 3c-44 0-85-3-123-9s-73-14-104-26-60-27-84-44-46-38-63-61c-13-17-22-33-29-49s-12-31-15-43-6-23-6-31-1-12-1-12c0-7 2-13 7-17s11-8 18-8h500c7 0 13-2 18-7s7-11 7-18-2-12-7-17-11-8-18-8v0z m375 296l0 29c0 17-3 34-10 49s-15 28-27 40-24 20-39 26-32 10-49 10-33-3-49-10-28-15-39-26-20-25-27-40-10-32-10-49v-29c-14-5-26-14-36-27s-14-28-14-44v-150c0-20 7-38 22-53s32-22 53-22h200c21 0 38 8 53 22s22 33 22 53v150c0 16-5 31-14 44s-21 22-36 27v0z m-125 104c21 0 38-7 53-22s22-32 22-53v-25h-150v25c0 21 7 39 22 53s32 22 53 22v0z m125-325c0-7-2-13-7-17s-11-8-18-8h-200c-7 0-13 3-17 8s-8 10-8 17v150c0 7 3 13 8 18s10 7 17 7h200c7 0 13-2 18-7s7-11 7-18v-150 0z" horiz-adv-x="1000" />
<glyph glyph-name="uniE93C" unicode="&#xe80b;" d="M250 0c-3 0-6 1-9 2s-6 3-9 6c-4 5-7 11-7 17s3 13 7 18l433 432-433 433c-4 5-7 10-7 17s3 13 7 18 11 7 18 7 13-2 18-7l450-450c5-5 7-11 7-18s-2-13-7-18l-450-449c-3-3-5-5-8-6s-7-2-10-2v0z" horiz-adv-x="1000" />
<glyph glyph-name="uniE93B" unicode="&#xe80c;" d="M700 0c3 0 6 1 9 2s6 3 9 6c5 5 7 11 7 17s-2 13-7 18l-433 432 433 433c5 5 7 10 7 17s-2 13-7 18-11 7-18 7-13-2-18-7l-450-450c-4-5-7-11-7-18s3-13 7-18l450-449c3-3 6-5 9-6s6-2 9-2v0z" horiz-adv-x="1000" />
<glyph glyph-name="uniE93A" unicode="&#xe80d;" d="M0 700c0 3 1 7 2 10s3 5 5 8c5 5 11 7 18 7s13-2 18-7l432-432 432 432c5 5 11 7 18 7s13-2 18-7 7-11 7-18-2-13-7-17l-450-451c-5-5-11-7-18-7s-13 2-17 7l-451 451c-2 2-4 5-5 8s-2 6-2 9v0z" horiz-adv-x="1000" />
<glyph glyph-name="uniE939" unicode="&#xe80e;" d="M0 250c0-3 1-6 2-9s3-6 5-9c5-5 11-7 18-7s13 2 18 7l432 433 432-433c5-5 11-7 18-7s13 2 18 7 7 11 7 18-2 13-7 18l-450 450c-5 5-11 7-18 7s-13-2-17-7l-451-450c-2-3-4-5-5-9s-2-6-2-9v0z" horiz-adv-x="1000" />
<glyph glyph-name="uniE76F" unicode="&#xe80f;" d="M800 0c-22 0-45 2-68 5s-45 8-69 14-47 14-71 23-48 20-72 33c-22 11-45 24-67 38s-44 28-65 44-43 33-64 51-41 36-60 56c-19 19-38 39-56 60s-35 42-50 64-31 43-45 65-26 45-38 67c-12 24-23 49-32 72s-17 48-23 72-11 46-15 69-4 45-4 67c0 15 2 29 8 42s13 27 21 39 17 22 25 31 16 17 22 22c8 8 18 16 28 23s21 15 32 22 22 11 33 15 21 6 30 6c9 0 20-3 31-9s24-16 39-30c10-9 21-21 33-34s23-27 35-43l20-26c9-13 19-27 29-43s19-32 26-48 12-31 12-42c0-19-9-35-27-49s-38-28-60-42l-25-16c-9-5-16-10-23-16-7-5-11-9-13-12s-4-5-4-6c12-29 29-60 52-91s49-62 77-90 59-55 90-77 62-41 92-53c1 1 2 2 5 4s8 6 13 13c5 7 11 14 16 22l16 26c14 23 28 43 42 61s30 26 49 26c12 0 25-4 42-11s32-17 48-27 30-19 43-29l26-19c16-12 30-24 43-36s25-23 34-34c13-14 23-27 30-38s9-21 9-31-2-19-6-30-9-22-16-33-13-22-21-32-15-20-23-28c-5-6-12-13-22-22s-19-17-31-25-25-15-39-21-28-9-42-9v0z m-600 950c-7 0-19-4-35-13s-34-21-54-40c-19-17-33-34-44-52s-16-32-16-45c0-84 23-170 70-259s106-169 178-242 154-132 242-179 175-70 259-70c13 0 28 6 46 17s34 25 51 44c18 20 32 38 40 54s13 28 13 35c-1 5-9 16-23 34s-41 40-77 68c-15 12-30 22-44 31s-26 17-37 23-20 11-27 14-14 5-17 5c0 0-2-1-5-3s-7-6-12-14c-5-6-10-13-16-21l-15-25c-14-23-28-43-43-61s-31-27-50-27c-3 0-6 0-9 0s-6 2-9 3c-33 13-67 32-101 57s-67 52-98 83-59 64-84 98-43 68-56 101c-3 8-4 18-2 29s10 25 26 40c8 7 17 14 28 21l33 21 24 15c9 6 16 11 22 15 8 6 12 11 14 14s3 4 3 5c0 3-2 8-5 16s-8 17-14 28-14 23-23 37-19 28-31 44c-28 35-51 61-69 76s-28 22-33 23v0z m693-57c-5 5-11 7-18 7s-13-2-18-7l-257-257v139c0 7-2 13-7 18s-11 7-18 7c-7 0-13-2-18-7s-7-11-7-18v-200c0-7 2-13 7-17s11-8 18-8h200c7 0 13 3 18 8s7 10 7 17-3 13-7 18-11 7-18 7h-140l258 257c5 5 7 11 7 18s-2 13-7 18v0z" horiz-adv-x="1000" />
<glyph glyph-name="uniE612" unicode="&#xe810;" d="M175 150c-3 0-6 1-9 2s-6 3-9 6c-3 3-5 7-6 12s-1 9 0 14l101 275c0 2 1 3 2 5s2 2 3 4l525 525c5 5 11 7 18 7s13-2 18-7l175-175c5-5 7-11 7-18s-2-12-7-17l-525-525c-1-2-3-3-5-4s-3-1-4-2l-275-100c-2-1-3-1-5-1s-3-1-4-1v0z m121 286l-79-219 219 80 504 503-140 140-504-504v0z m579-436h-800c-21 0-38 8-53 22s-22 33-22 53v800c0 21 7 39 22 53s32 22 53 22h500c7 0 13-2 18-7s7-11 7-18-2-12-7-17-11-8-18-8h-500c-7 0-13-2-18-7s-7-11-7-18v-800c0-7 2-13 7-17s11-8 18-8h800c7 0 13 3 18 8s7 10 7 17v500c0 7 2 13 7 18s11 7 18 7c7 0 13-2 18-7s7-11 7-18v-500c0-20-7-38-22-53s-32-22-53-22v0z" horiz-adv-x="1000" />
<glyph glyph-name="uniE78D" unicode="&#xe811;" d="M975 749c-7 2-13 2-19-1s-11-8-13-15c-4-12-10-23-18-34s-17-19-28-26-21-13-34-17-25-6-38-6c-17 0-33 4-47 11s-26 17-37 30-20 26-27 41-12 31-14 47c-3 15-6 28-10 42s-9 27-15 39-13 25-21 37-16 22-25 32c-11 12-22 22-34 31s-24 16-37 22-26 11-40 14-28 4-43 4c-29 0-56-5-82-15s-49-25-69-43-36-39-49-64-21-50-23-79c-36-3-69-12-99-27s-57-36-80-60-40-53-53-85-20-66-20-102v-250c0-38 7-73 22-107s34-62 59-87 54-45 87-59 69-22 107-22c38 0 74 8 107 22s63 34 88 59 44 54 58 87 22 69 22 107v250c0 36-6 69-19 101s-30 60-53 84-49 45-79 60-62 26-97 29c3 21 9 41 19 60s23 34 39 48 33 24 52 32 41 11 63 11c24 0 46-5 66-15s37-24 52-41 28-36 37-57 17-44 20-66c4-22 11-43 20-63s21-37 35-53c16-18 35-31 55-41s42-14 65-14c18 0 36 3 53 9s34 13 48 24 27 22 38 36 20 30 26 48c3 6 2 13-1 19s-8 11-14 13v0z m-725 0v-199h-199c3 26 10 51 22 73s25 44 43 61 38 33 61 44 47 18 73 21v0z m25-699c-31 0-60 6-87 18s-52 28-72 48-36 45-48 72-18 56-18 87v225h450v-225c0-31-6-60-18-87s-28-51-48-72-44-36-72-48-56-18-87-18v0z m224 500h-199v199c26-3 50-10 73-21s44-26 61-44 32-38 43-61 19-47 22-73v0z" horiz-adv-x="1000" />
<glyph glyph-name="uniE785" unicode="&#xe812;" d="M925 900h-125v25c0 7-3 13-7 18s-11 7-18 7-13-2-18-7-7-11-7-18v-25h-500v25c0 7-2 13-7 18s-11 7-18 7-13-2-17-7-8-11-8-18v-25h-125c-21 0-38-7-53-22s-22-32-22-53v-700c0-20 7-38 22-53s32-22 53-22h850c21 0 38 8 53 22s22 33 22 53v700c0 21-7 39-22 53s-32 22-53 22v0z m-850-50h125v-75c0-6 3-12 8-17s10-8 17-8 13 3 18 8 7 11 7 17v75h500v-75c0-6 2-12 7-17s11-8 18-8 13 3 18 8 7 11 7 17v75h125c7 0 13-2 18-7s7-11 7-18v-125h-900v125c0 7 2 13 7 18s11 7 18 7v0z m850-750h-850c-7 0-13 2-18 7s-7 11-7 18v525h900v-525c0-7-2-13-7-18s-11-7-18-7v0z" horiz-adv-x="1000" />
<glyph glyph-name="uniE6D5" unicode="&#xe813;" d="M725 300h-300c-7 0-13 3-18 8s-7 10-7 17v200c0 7 2 13 7 18s11 7 18 7h300c7 0 13-2 18-7s7-11 7-18v-200c0-7-2-13-7-17s-11-8-18-8v0z m-275 50h250v150h-250v-150 0z m-125 150h-150c-7 0-13 3-18 8s-7 11-7 17 2 13 7 18 11 7 18 7h150c7 0 13-2 18-7s7-11 7-18-2-12-7-17-11-8-18-8v0z m0-100h-150c-7 0-13 3-18 8s-7 10-7 17 2 13 7 18 11 7 18 7h150c7 0 13-2 18-7s7-11 7-18-2-12-7-17-11-8-18-8v0z m0-100h-150c-7 0-13 3-18 8s-7 10-7 17 2 13 7 18 11 7 18 7h150c7 0 13-2 18-7s7-11 7-18-2-13-7-17-11-8-18-8v0z m650 400c-7 0-13-2-17-7s-8-11-8-18v-450c0-7-2-13-7-18s-11-7-18-7h-850c-7 0-13 3-18 7s-7 11-7 18v500c0 7 2 13 7 18s11 7 18 7h750c7 0 13-2 18-7s7-11 7-18v-450c0-6 3-12 7-17s11-8 18-8 13 3 18 8 7 11 7 17v450c0 21-7 39-22 53s-32 22-53 22h-750c-21 0-38-7-53-22s-22-32-22-53v-500c0-20 7-38 22-53s32-22 53-22h850c21 0 38 8 53 22s22 33 22 53v450c0 7-2 13-7 18s-11 7-18 7v0z m-250-100h-550c-7 0-13 2-18 7s-7 11-7 18c0 7 2 13 7 18s11 7 18 7h550c7 0 13-2 18-7s7-11 7-18c0-7-2-13-7-18s-11-7-18-7v0z" horiz-adv-x="1000" />
<glyph glyph-name="uniE66D" unicode="&#xe814;" d="M675 950c-31 0-60-6-88-17s-51-28-71-49-36-44-48-71-18-57-18-88v-125h-375c-21 0-38-7-53-22s-22-32-22-53v-400c0-20 7-38 22-53s32-22 53-22h500c21 0 38 8 53 22s22 33 22 53v400c0 21-7 38-22 53s-32 22-53 22h-75v125c0 24 5 47 14 68s21 40 37 56 35 28 56 37 44 14 68 14c24 0 47-4 68-14s40-21 56-37 28-34 37-56 14-44 14-68v-50c0-7 3-12 7-17s11-8 18-8 13 3 18 8 7 10 7 17v50c0 31-6 61-18 88s-27 51-48 71-44 37-71 49-57 17-88 17v0z m-100-400c7 0 13-2 18-7s7-11 7-18v-400c0-7-2-13-7-18s-11-7-18-7h-500c-7 0-13 2-18 7s-7 11-7 18v400c0 7 2 13 7 18s11 7 18 7h500v0z" horiz-adv-x="1000" />
<glyph glyph-name="uniE6D8" unicode="&#xe815;" d="M825 0h-650c-21 0-38 8-53 22s-22 33-22 53v800c0 21 7 39 22 53s32 22 53 22h650c21 0 38-7 53-22s22-32 22-53v-800c0-20-7-38-22-53s-32-22-53-22v0z m-650 900c-7 0-13-2-18-7s-7-11-7-18v-800c0-7 2-13 7-17s11-8 18-8h650c7 0 13 3 18 8s7 10 7 17v800c0 7-2 13-7 18s-11 7-18 7h-650v0z m450-150h-350c-7 0-13 3-18 8s-7 11-7 17 2 13 7 18 11 7 18 7h350c7 0 13-2 18-7s7-11 7-18-2-12-7-17-11-8-18-8v0z m100-100h-450c-7 0-13 3-18 8s-7 10-7 17 2 13 7 18 11 7 18 7h450c7 0 13-2 18-7s7-11 7-18-2-12-7-17-11-8-18-8v0z m0-100h-450c-7 0-13 3-18 8s-7 10-7 17 2 13 7 18 11 7 18 7h450c7 0 13-2 18-7s7-11 7-18-2-13-7-17-11-8-18-8v0z m-200-100h-250c-7 0-13 3-18 7s-7 11-7 18c0 7 2 13 7 18s11 7 18 7h250c7 0 13-2 18-7s7-11 7-18c0-7-3-13-7-18s-11-7-18-7v0z m200-200h-450c-7 0-13 3-18 8s-7 11-7 17 2 13 7 18 11 7 18 7h450c7 0 13-2 18-7s7-11 7-18-2-12-7-17-11-8-18-8v0z m-100-100h-350c-7 0-13 3-18 8s-7 10-7 17 2 13 7 18 11 7 18 7h350c7 0 13-2 18-7s7-11 7-18-2-12-7-17-11-8-18-8v0z" horiz-adv-x="1000" />
<glyph glyph-name="uniE66B" unicode="&#xe816;" d="M725 600h-25v75c0 31-6 60-18 88s-28 51-48 71-44 37-71 49-57 17-88 17-60-6-87-17-51-28-72-49-36-44-48-71-18-57-18-88v-75h-25c-21 0-38-7-53-22s-22-32-22-53v-400c0-20 7-38 22-53s32-22 53-22h500c21 0 38 8 53 22s22 33 22 53v400c0 21-7 38-22 53s-32 22-53 22v0z m-425 75c0 24 4 47 14 68s22 40 37 56 35 28 56 37 44 14 68 14 47-5 68-14 40-21 56-37 28-34 37-56 14-44 14-68v-75h-350v75 0z m450-550c0-7-2-13-7-18s-11-7-18-7h-500c-7 0-13 2-17 7s-8 11-8 18v400c0 7 3 13 8 18s10 7 17 7h500c7 0 13-2 18-7s7-11 7-18v-400 0z" horiz-adv-x="1000" />
<glyph glyph-name="uniE601" unicode="&#xe817;" d="M25 400c-3 0-6 1-9 2s-5 2-8 5c-5 4-8 10-8 17s2 13 6 18l442 488c7 8 15 13 23 17s19 7 29 7v0 0c10 0 20-2 29-7s16-9 23-17l442-488c4-5 6-11 6-18s-3-13-8-17-11-7-18-7-13 3-17 9l-442 487c-2 3-4 4-7 6s-5 1-8 1-6 0-8-1-5-3-7-6l-441-487c-3-3-6-5-9-7s-6-2-10-2v0z m750-400h-550c-21 0-38 8-53 22s-22 33-22 53v400c0 7 2 13 7 18s11 7 18 7c7 0 13-2 18-7s7-11 7-18v-400c0-7 3-13 8-17s10-8 17-8h550c7 0 13 3 18 8s7 10 7 17v400c0 7 2 13 7 18s11 7 18 7c7 0 13-2 18-7s7-11 7-18v-400c0-20-7-38-22-53s-32-22-53-22v0z" horiz-adv-x="1000" />
<glyph glyph-name="uniE6B1" unicode="&#xe818;" d="M925 800h-75v125c0 21-7 39-22 53s-32 22-53 22h-550c-21 0-38-7-53-22s-22-32-22-53v-125h-75c-21 0-38-7-53-22s-22-32-22-53v-450c0-20 7-38 22-53s32-22 53-22h75v-125c0-20 7-38 22-53s32-22 53-22h550c21 0 39 8 53 22s22 33 22 53v125h75c21 0 38 7 53 22s22 33 22 53v450c0 21-7 39-22 53s-32 22-53 22v0z m-725 125c0 7 3 13 8 18s10 7 17 7h550c7 0 13-2 18-7s7-11 7-18v-125h-600v125 0z m575-875h-550c-7 0-13 3-17 8s-8 10-8 17v325h600v-325c0-7-3-13-7-17s-11-8-18-8v0z m175 225c0-6-2-12-7-17s-11-8-18-8h-75v150h25c7 0 13 3 18 8s7 10 7 17-2 13-7 18-11 7-18 7h-750c-7 0-13-2-18-7s-7-11-7-18 3-12 7-17 11-8 18-8h25v-150h-75c-7 0-13 3-18 8s-7 11-7 17v450c0 7 2 13 7 18s11 7 18 7h850c7 0 13-2 18-7s7-11 7-18v-450 0z m-225 25h-450c-7 0-13 3-18 8s-7 10-7 17 2 13 7 18 11 7 18 7h450c7 0 13-2 18-7s7-11 7-18-2-13-7-17-11-8-18-8v0z m0-100h-450c-7 0-13 3-18 7s-7 11-7 18c0 7 2 13 7 18s11 7 18 7h450c7 0 13-2 18-7s7-11 7-18c0-7-2-13-7-18s-11-7-18-7v0z m0-100h-450c-7 0-13 2-18 7s-7 11-7 18c0 7 2 13 7 18s11 7 18 7h450c7 0 13-2 18-7s7-11 7-18c0-7-2-13-7-18s-11-7-18-7v0z m100 450c-21 0-38 8-53 22s-22 33-22 53c0 21 7 39 22 53s32 22 53 22c21 0 38-7 53-22s22-32 22-53c0-20-7-38-22-53s-32-22-53-22v0z m0 100c-7 0-13-2-18-7s-7-11-7-18c0-7 2-13 7-18s11-7 18-7c7 0 13 2 18 7s7 11 7 18c0 7-2 13-7 18s-11 7-18 7v0z" horiz-adv-x="1000" />
<glyph glyph-name="uniE6AC" unicode="&#xe819;" d="M875 0h-800c-21 0-38 8-53 22s-22 33-22 53v150c0 16 2 34 7 54s11 38 18 52l105 211c9 16 22 30 40 41s37 17 55 17c7 0 13-2 18-7s7-11 7-18-2-13-7-17-11-8-18-8c-9 0-19-3-29-9s-17-13-21-22l-105-210c-5-11-10-24-14-41s-6-31-6-43v-150c0-7 2-13 7-17s11-8 18-8h800c7 0 13 3 18 8s7 10 7 17v150c0 12-2 26-6 43s-8 30-14 41l-105 210c-4 9-11 16-21 22s-20 9-29 9c-7 0-13 3-17 8s-8 10-8 17 3 13 8 18 10 7 17 7c18 0 37-6 55-17s32-25 40-41l105-211c7-14 13-31 18-52s7-38 7-54v-150c0-20-7-38-22-53s-32-22-53-22v0z m-50 100h-50c-7 0-13 2-18 7s-7 11-7 18c0 7 2 13 7 18s11 7 18 7h50c7 0 13-2 18-7s7-11 7-18c0-7-2-13-7-18s-11-7-18-7v0z m0 100h-700c-7 0-13 3-18 7s-7 11-7 18c0 7 3 13 7 18s11 7 18 7h700c7 0 13-2 18-7s7-11 7-18c0-7-2-13-7-18s-11-7-18-7v0z m-182 418c-5 5-11 7-18 7s-13-2-18-7l-107-107v414c0 7-2 13-7 18s-11 7-18 7-13-2-17-7-8-11-8-18v-414l-107 107c-5 5-11 7-18 7s-13-2-18-7-7-11-7-18 2-13 7-18l151-149c2-3 5-5 8-6s6-2 9-2 7 1 10 2 5 3 8 6l150 149c5 5 7 11 7 18s-2 13-7 18v0z" horiz-adv-x="1000" />
<glyph glyph-name="uniE92A" unicode="&#xe81a;" d="M535 475l283 283c5 5 7 11 7 17s-2 13-7 18-11 7-18 7-13-2-18-7l-282-282-282 282c-5 5-11 7-18 7s-13-2-18-7-7-11-7-18 2-12 7-17l283-283-283-282c-5-5-7-11-7-18s2-12 7-17c3-3 6-5 9-6s6-2 9-2c3 0 6 1 9 2s6 3 9 6l282 282 282-282c3-3 6-5 9-6s6-2 9-2c3 0 6 1 9 2s6 3 9 6c5 5 7 10 7 17s-2 13-7 18l-283 282v0z" horiz-adv-x="1000" />
<glyph glyph-name="uniE934" unicode="&#xe81b;" d="M275 125c-3 0-6 1-10 2s-5 3-8 6l-250 250c-5 5-7 11-7 17s2 13 7 18 11 7 18 7 13-2 18-7l232-233 683 683c4 5 10 7 17 7s13-2 18-7 7-11 7-18-2-13-7-18l-700-699c-3-3-5-5-9-6s-6-2-9-2v0z" horiz-adv-x="1000" />
<glyph glyph-name="uniE935" unicode="&#xe81c;" d="M535 475l433 433c5 5 7 10 7 17s-2 13-7 18-11 7-18 7-13-2-18-7l-432-432-432 432c-5 5-11 7-18 7s-13-2-18-7-7-11-7-18 2-12 7-17l433-433-433-432c-5-5-7-11-7-18s2-12 7-17c3-3 6-5 9-6s6-2 9-2c3 0 6 1 9 2s6 3 9 6l432 432 432-432c3-3 6-5 9-6s6-2 9-2c3 0 6 1 9 2s6 3 9 6c5 5 7 11 7 17s-2 13-7 18l-433 432v0z" horiz-adv-x="1000" />
<glyph glyph-name="uniE941" unicode="&#xe81d;" d="M458 968l-301-300c-5-5-7-11-7-18s2-12 7-17 11-8 18-8 13 3 18 8l257 257v-815c0-7 3-13 8-17s10-8 17-8 13 3 18 8 7 10 7 17v815l257-257c5-5 11-8 18-8s13 3 18 8c2 2 4 5 5 8s2 6 2 9-1 7-2 10-3 6-5 8l-300 300c-5 5-11 7-18 7s-13-2-17-7v0z" horiz-adv-x="1000" />
<glyph glyph-name="uniE942" unicode="&#xe81e;" d="M493 33l300 299c4 5 7 11 7 18s-3 13-7 18-11 7-18 7-13-2-18-7l-257-257v814c0 7-2 13-7 18s-11 7-18 7-13-2-17-7-8-11-8-18v-814l-257 257c-5 5-11 7-18 7s-13-2-18-7c-2-2-4-5-5-8s-2-7-2-10c0-3 1-6 2-9s3-6 5-9l301-299c4-5 10-8 17-8s13 3 18 8v0z" horiz-adv-x="1000" />
<glyph glyph-name="uniE943" unicode="&#xe81f;" d="M32 493l301 300c4 5 10 7 17 7s13-2 18-7 7-11 7-18-2-12-7-17l-258-258h815c7 0 13-2 18-7s7-11 7-18c0-7-2-13-7-18s-11-7-18-7h-815l258-257c5-5 7-11 7-18s-2-12-7-17c-3-3-5-5-8-6s-7-2-10-2-6 1-9 2-6 3-8 6l-301 299c-5 5-7 11-7 18s2 13 7 18v0z" horiz-adv-x="1000" />
<glyph glyph-name="uniE944" unicode="&#xe820;" d="M968 493l-300 300c-5 5-11 7-18 7s-13-2-18-7-7-11-7-18 2-12 7-17l258-258h-815c-7 0-13-2-18-7s-7-11-7-18c0-7 2-13 7-18s11-7 18-7h815l-258-257c-5-5-7-11-7-18s2-12 7-17c3-3 5-5 8-6s7-2 10-2 6 1 9 2 6 3 9 6l300 299c5 5 7 11 7 18s-2 13-7 18v0z" horiz-adv-x="1000" />
<glyph glyph-name="uniE920" unicode="&#xe821;" d="M800 400c-17 0-34-2-50-6s-31-10-46-18-27-17-39-28-22-23-31-37l-245 123c3 10 6 21 8 32s3 23 3 34c0 12-1 23-3 34s-5 22-8 33l245 122c9-13 19-26 31-36s25-21 39-29 30-13 46-18 33-6 50-6c28 0 53 5 78 16s45 25 63 43 33 39 43 63 16 51 16 78-5 54-16 78-24 46-43 64-39 32-63 43-50 15-78 15c-27 0-53-5-78-15s-45-25-63-43-33-40-43-64-16-50-16-78c0-11 1-23 3-34s5-22 8-32l-245-123c-9 14-19 26-31 37s-25 20-39 28-30 14-46 18-33 6-50 6c-27 0-53-5-78-15s-45-25-63-43-33-40-43-64-16-50-16-78c0-27 5-53 16-77s24-46 43-64 39-33 63-43 51-16 78-16c17 0 34 2 50 7s32 10 46 18 27 17 39 28 22 23 31 36l245-122c-3-11-6-22-8-33s-3-22-3-34c0-27 5-53 16-77s25-46 43-64 39-33 63-43 51-16 78-16c28 0 53 6 78 16s45 25 63 43 33 39 43 64 16 50 16 77c0 28-5 54-16 78s-24 45-43 64-39 32-63 42-50 16-78 16v0z m0 550c21 0 40-4 58-12s35-18 48-32 24-29 32-47 12-38 12-59-4-40-12-58-18-34-32-48-29-24-48-32-37-12-58-12c-21 0-40 4-58 12s-34 19-48 32-24 30-32 48-12 37-12 58 4 41 12 59 19 34 32 47 30 25 48 32 37 12 58 12v0z m-600-600c-21 0-40 4-58 12s-34 19-48 32-24 30-32 48-12 38-12 58c0 21 4 40 12 59s19 34 32 47 29 24 48 32 37 12 58 12c21 0 40-4 58-12s34-18 48-32 24-29 32-47 12-38 12-59c0-20-4-40-12-58s-19-34-32-48-29-24-48-32-37-12-58-12v0z m600-300c-21 0-40 4-58 12s-34 19-48 32-24 30-32 48-12 38-12 58c0 21 4 41 12 59s19 34 32 47 30 25 48 32 37 12 58 12c21 0 40-4 58-12s35-18 48-32 24-29 32-47 12-38 12-59c0-20-4-40-12-58s-18-34-32-48-29-24-48-32-37-12-58-12v0z" horiz-adv-x="1000" />
<glyph glyph-name="uniE8F5" unicode="&#xe822;" d="M743 518c-5 5-11 7-18 7s-13-2-17-7l-208-208v565c0 7-2 13-7 18s-11 7-18 7-13-2-17-7-8-11-8-18v-565l-207 208c-5 5-11 7-18 7s-13-2-17-7-8-11-8-18 3-13 8-18l250-250c2-2 5-4 8-5s6-2 9-2 7 1 10 2 5 3 8 5l250 250c5 5 7 11 7 18s-2 13-7 18v0z m132-468h-800c-21 0-38 8-53 22s-22 33-22 53v100c0 7 2 13 7 18s11 7 18 7 13-2 18-7 7-11 7-18v-100c0-7 2-13 7-18s11-7 18-7h800c7 0 13 2 18 7s7 11 7 18v100c0 7 2 13 7 18s11 7 18 7c7 0 13-2 18-7s7-11 7-18v-100c0-20-7-38-22-53s-32-22-53-22v0z" horiz-adv-x="1000" />
<glyph glyph-name="uniE8FC" unicode="&#xe823;" d="M775 1000h-600c-21 0-38-7-53-22s-22-32-22-53v-500c0-21 7-38 22-53s32-22 53-22h200c7 0 13 2 18 7s7 11 7 18c0 7-2 13-7 18s-11 7-18 7h-200c-7 0-13 3-18 8s-7 10-7 17v500c0 7 2 13 7 18s11 7 18 7h600c7 0 13-2 18-7s7-11 7-18v-500c0-7-3-12-7-17s-11-8-18-8h-200c-7 0-13-2-18-7s-7-11-7-18c0-7 2-13 7-18s11-7 18-7h200c21 0 39 7 53 22s22 32 22 53v500c0 21-7 39-22 53s-32 22-53 22v0z m-132-817l-150-150c-5-5-11-8-18-8s-13 3-17 8l-151 150c-5 4-7 10-7 17s2 13 7 18 11 7 18 7 13-2 18-7l107-107v564c0 7 3 13 8 18s10 7 17 7 13-2 18-7 7-11 7-18v-564l107 107c3 2 5 4 9 5s6 2 9 2 6-1 10-2 5-3 8-5c5-5 7-11 7-18s-2-13-7-17v0z" horiz-adv-x="1000" />
<glyph glyph-name="uniE6FB" unicode="&#xe824;" d="M925 950h-850c-7 0-13-2-18-7s-7-11-7-18v-900c0-6 2-12 7-17s11-8 18-8h850c7 0 13 3 18 8s7 11 7 17v900c0 7-2 13-7 18s-11 7-18 7v0z m-725-300h-100v100h100v-100 0z m0-50v-100h-100v100h100v0z m0-150v-100h-100v100h100v0z m-100-150h100v-100h-100v100 0z m150 600h500v-850h-500v850 0z m550-450h100v-100h-100v100 0z m0 50v100h100v-100h-100v0z m0 150v100h100v-100h-100v0z m0-350h100v-100h-100v100 0z m100 500h-100v100h100v-100 0z m-700 100v-100h-100v100h100v0z m-100-750h100v-100h-100v100 0z m700-100v100h100v-100h-100v0z" horiz-adv-x="1000" />
<glyph glyph-name="uniE6F7" unicode="&#xe825;" d="M925 0h-850c-21 0-38 8-53 22s-22 33-22 53v850c0 21 7 39 22 53s32 22 53 22h850c21 0 38-7 53-22s22-32 22-53v-850c0-20-7-38-22-53s-32-22-53-22v0z m-850 950c-7 0-13-2-18-7s-7-11-7-18v-850c0-7 2-13 7-17s11-8 18-8h850c7 0 13 3 18 8s7 10 7 17v850c0 7-2 13-7 18s-11 7-18 7h-850v0z m250-750c-2 0-4 0-6 1s-4 1-5 2c-5 2-8 5-10 9s-4 8-4 13v550c0 5 1 9 4 13s5 7 10 9c3 3 8 4 12 3s9-2 13-4l400-275c4-2 6-5 8-9s3-8 3-12c0-4-1-8-3-11s-4-7-8-10l-400-274c-2-2-4-3-7-4s-4-1-7-1v0z m25 527v-454l331 227-331 227v0z" horiz-adv-x="1000" />
<glyph glyph-name="uniE6F8" unicode="&#xe826;" d="M375 250c-2 0-4 1-6 1s-3 1-5 2c-4 2-8 5-10 9s-4 8-4 13v450c0 5 1 9 4 13s6 8 10 10c4 2 9 3 13 2s9-2 13-5l300-225c3-2 6-5 8-9s2-7 2-11-1-7-2-11-5-6-8-9l-300-225c-2-1-5-3-7-3s-5-2-8-2v0z m25 425v-350l233 175-233 175v0z m575 225h-950c-7 0-13-2-18-7s-7-11-7-18v-750c0-7 2-13 7-18s11-7 18-7h950c7 0 13 2 18 7s7 11 7 18v750c0 7-2 13-7 18s-11 7-18 7v0z m-825-450h-100v100h100v-100 0z m0 150h-100v100h100v-100 0z m-100-200h100v-100h-100v100 0z m150 450h600v-700h-600v700 0z m650-300h100v-100h-100v100 0z m0 50v100h100v-100h-100v0z m0-200h100v-100h-100v100 0z m100 350h-100v100h100v-100 0z m-800 100v-100h-100v100h100v0z m-100-600h100v-100h-100v100 0z m800-100v100h100v-100h-100v0z" horiz-adv-x="1000" />
<glyph glyph-name="uniE96A" unicode="&#xe827;" d="M475 0c-32 0-63 3-93 9s-60 15-89 27-55 26-81 44-50 37-73 60c-22 22-42 46-59 72s-32 53-44 81-21 58-27 89-9 61-9 93c0 32 3 63 9 94s15 59 27 88 26 56 44 81 37 51 59 73 47 42 73 60 53 31 81 43 58 21 89 27 61 9 93 9c32 0 63-3 93-9s61-15 89-27 56-26 82-43 50-38 72-60 42-47 60-73 31-53 43-81 21-58 27-88 9-62 9-94c0-32-3-63-9-93s-15-60-27-89-26-55-43-81-37-50-60-72c-22-23-47-43-72-60s-53-32-82-44-58-21-89-27-61-9-93-9v0z m0 900c-58 0-114-11-165-33s-97-53-135-91-69-84-92-136-33-106-33-165 11-114 33-165 53-97 92-135 83-69 135-91 107-34 165-34 114 11 165 34 97 52 135 91 69 83 92 135 33 106 33 165-11 114-33 165-53 97-92 136-83 69-135 91-106 33-165 33v0z m-150-700c-2 0-4 0-6 1s-4 1-6 3c-4 2-7 4-9 8s-4 8-4 13v500c0 5 1 9 4 13s5 7 9 9 8 3 13 3 9-1 12-3l400-250c4-3 7-6 9-9s3-8 3-13c0-4-1-8-3-12s-5-7-9-9l-400-250c-2-1-4-2-6-3s-4-1-7-1v0z m25 480v-410l328 205-328 205v0z" horiz-adv-x="1000" />
<glyph glyph-name="uniE957" unicode="&#xe828;" d="M811 811c-22 22-47 42-72 60s-53 31-82 43-58 21-89 27-61 9-93 9c-32 0-63-3-93-9s-60-15-89-27-55-26-81-43-50-38-73-60-42-47-59-73-32-53-44-81-21-58-27-88-9-62-9-94c0-32 3-63 9-93s15-60 27-89 26-55 44-81 37-50 59-72c23-23 47-43 73-60s53-32 81-44 58-21 89-27 61-9 93-9c32 0 63 3 93 9s61 15 89 27 56 26 82 44 50 37 72 60c23 22 42 46 60 72s31 53 43 81 21 58 27 89 9 61 9 93c0 32-3 63-9 94s-15 59-27 88-26 56-43 81-37 51-60 73v0z m-336-761c-58 0-114 11-165 34s-97 52-135 91-69 83-92 135-33 106-33 165 11 114 33 165 53 97 92 136 83 69 135 91 107 33 165 33 114-11 165-33 97-53 135-91 69-84 92-136 33-106 33-165-11-114-33-165-53-97-92-135-83-69-135-91-106-34-165-34v0z m0 200c-7 0-13 3-17 8s-8 11-8 17v100c0 7 3 13 8 18s10 7 17 7c24 0 47 5 68 14s40 22 56 38 28 34 37 55 14 44 14 68-5 47-14 68-21 40-37 56-35 28-56 38-44 13-68 13-47-4-68-13-40-22-56-38-28-34-37-56-14-44-14-68c0-7-3-13-7-17s-11-8-18-8-13 3-18 8-7 10-7 17c0 31 6 60 18 88s28 51 48 71 44 37 72 48 56 18 87 18 60-6 88-18 51-28 71-48 37-44 48-71 18-57 18-88c0-29-5-56-15-82s-25-48-43-68-39-36-63-49-51-21-79-24v-77c0-6-2-12-7-17s-11-8-18-8v0z m0-150v0c-7 0-13 2-17 7s-8 11-8 18v50c0 7 3 13 8 18s10 7 17 7v0 0c7 0 13-2 18-7s7-11 7-18v-50c0-7-2-13-7-18s-11-7-18-7v0z" horiz-adv-x="1000" />
<glyph glyph-name="uniE956" unicode="&#xe829;" d="M811 811c-22 22-47 42-72 60s-53 31-82 43-58 21-89 27-61 9-93 9c-32 0-63-3-93-9s-60-15-89-27-55-26-81-43-50-38-73-60-42-47-59-73-32-53-44-81-21-58-27-88-9-62-9-94c0-32 3-63 9-93s15-60 27-89 26-55 44-81 37-50 59-72c23-23 47-43 73-60s53-32 81-44 58-21 89-27 61-9 93-9c32 0 63 3 93 9s61 15 89 27 56 26 82 44 50 37 72 60c23 22 42 46 60 72s31 53 43 81 21 58 27 89 9 61 9 93c0 32-3 63-9 94s-15 59-27 88-26 56-43 81-37 51-60 73v0z m-336-761c-58 0-114 11-165 34s-97 52-135 91-69 83-92 135-33 106-33 165 11 114 33 165 53 97 92 136 83 69 135 91 107 33 165 33 114-11 165-33 97-53 135-91 69-84 92-136 33-106 33-165-11-114-33-165-53-97-92-135-83-69-135-91-106-34-165-34v0z m0 50v0c-7 0-13 2-17 7s-8 11-8 18v50c0 7 3 13 8 18s10 7 17 7v0c7 0 13-2 18-7s7-11 7-18v-50c0-7-2-13-7-18s-11-7-18-7v0z m0 150c-7 0-13 3-17 8s-8 11-8 17v500c0 7 3 13 8 18s10 7 17 7 13-2 18-7 7-11 7-18v-500c0-6-2-12-7-17s-11-8-18-8v0z" horiz-adv-x="1000" />
<glyph glyph-name="uniE959" unicode="&#xe82a;" d="M475 0c-32 0-63 3-93 9s-60 15-89 27-55 26-81 44-50 37-73 60c-22 22-42 46-59 72s-32 53-44 81-21 58-27 89-9 61-9 93c0 32 3 63 9 94s15 59 27 88 26 56 44 81 37 51 59 73 47 42 73 60 53 31 81 43 58 21 89 27 61 9 93 9c32 0 63-3 93-9s61-15 89-27 56-26 82-43 50-38 72-60 42-47 60-73 31-53 43-81 21-58 27-88 9-62 9-94c0-32-3-63-9-93s-15-60-27-89-26-55-43-81-37-50-60-72c-22-23-47-43-72-60s-53-32-82-44-58-21-89-27-61-9-93-9v0z m0 900c-58 0-114-11-165-33s-97-53-135-91-69-84-92-136-33-106-33-165 11-114 33-165 53-97 92-135 83-69 135-91 107-34 165-34 114 11 165 34 97 52 135 91 69 83 92 135 33 106 33 165-11 114-33 165-53 97-92 136-83 69-135 91-106 33-165 33v0z m-100-625c-3 0-6 1-9 2s-6 3-9 6l-149 150c-5 4-8 10-8 17s3 13 8 18 10 7 17 7 13-2 18-7l132-133 333 333c4 5 10 7 17 7s13-2 18-7 7-11 7-18-2-12-7-17l-350-350c-3-3-5-5-8-6s-7-2-10-2v0z" horiz-adv-x="1000" />
<glyph glyph-name="uniE95A" unicode="&#xe82b;" d="M717 294l-204 181 204 182c5 4 7 10 8 17s-2 13-6 18-11 8-18 8-12-2-17-6l-209-185-208 185c-6 4-12 6-18 6s-13-3-18-8-6-11-6-18 3-13 8-17l205-182-205-181c-5-5-8-10-8-17s2-13 6-18c3-3 6-5 9-7s6-2 10-2c3 0 6 1 9 2s5 3 8 5l208 185 209-185c2-2 5-4 7-5s6-2 9-2c4 0 7 1 10 2s6 4 9 7c4 5 6 11 6 18s-3 12-8 17v0z m-242-294c-32 0-63 3-93 9s-60 15-89 27-55 26-81 44-50 37-73 60c-22 22-42 46-59 72s-32 53-44 81-21 58-27 89-9 61-9 93c0 32 3 63 9 94s15 59 27 88 26 56 44 81 37 51 59 73 47 42 73 60 53 31 81 43 58 21 89 27 61 9 93 9c32 0 63-3 93-9s61-15 89-27 56-26 82-43 50-38 72-60 42-47 60-73 31-53 43-81 21-58 27-88 9-62 9-94c0-32-3-63-9-93s-15-60-27-89-26-55-43-81-37-50-60-72c-22-23-47-43-72-60s-53-32-82-44-58-21-89-27-61-9-93-9v0z m0 900c-58 0-114-11-165-33s-97-53-135-91-69-84-92-136-33-106-33-165 11-114 33-165 53-97 92-135 83-69 135-91 107-34 165-34 114 11 165 34 97 52 135 91 69 83 92 135 33 106 33 165-11 114-33 165-53 97-92 136-83 69-135 91-106 33-165 33v0z" horiz-adv-x="1000" />
<glyph glyph-name="uniE95B" unicode="&#xe82c;" d="M811 811c-22 22-47 42-72 60s-53 31-82 43-58 21-89 27-61 9-93 9c-32 0-63-3-93-9s-60-15-89-27-55-26-81-43-50-38-73-60-42-47-59-73-32-53-44-81-21-58-27-88-9-62-9-94c0-32 3-63 9-93s15-60 27-89 26-55 44-81 37-50 59-72c23-23 47-43 73-60s53-32 81-44 58-21 89-27 61-9 93-9c32 0 63 3 93 9s61 15 89 27 56 26 82 44 50 37 72 60c23 22 42 46 60 72s31 53 43 81 21 58 27 89 9 61 9 93c0 32-3 63-9 94s-15 59-27 88-26 56-43 81-37 51-60 73v0z m-336-761c-58 0-114 11-165 34s-97 52-135 91-69 83-92 135-33 106-33 165 11 114 33 165 53 97 92 136 83 69 135 91 107 33 165 33 114-11 165-33 97-53 135-91 69-84 92-136 33-106 33-165-11-114-33-165-53-97-92-135-83-69-135-91-106-34-165-34v0z m300 450h-275v275c0 7-2 13-7 18s-11 7-18 7-13-2-17-7-8-11-8-18v-275h-275c-7 0-13-2-18-7s-7-11-7-18c0-7 2-13 7-18s11-7 18-7h275v-275c0-7 3-12 8-17s10-8 17-8 13 3 18 8 7 10 7 17v275h275c7 0 13 3 18 7s7 11 7 18c0 7-3 13-7 18s-11 7-18 7v0z" horiz-adv-x="1000" />
<glyph glyph-name="uniE95C" unicode="&#xe82d;" d="M811 811c-22 22-47 42-72 60s-53 31-82 43-58 21-89 27-61 9-93 9c-32 0-63-3-93-9s-60-15-89-27-55-26-81-43-50-38-73-60-42-47-59-73-32-53-44-81-21-58-27-88-9-62-9-94c0-32 3-63 9-93s15-60 27-89 26-55 44-81 37-50 59-72c23-23 47-43 73-60s53-32 81-44 58-21 89-27 61-9 93-9c32 0 63 3 93 9s61 15 89 27 56 26 82 44 50 37 72 60c23 22 42 46 60 72s31 53 43 81 21 58 27 89 9 61 9 93c0 32-3 63-9 94s-15 59-27 88-26 56-43 81-37 51-60 73v0z m-336-761c-58 0-114 11-165 34s-97 52-135 91-69 83-92 135-33 106-33 165 11 114 33 165 53 97 92 136 83 69 135 91 107 33 165 33 114-11 165-33 97-53 135-91 69-84 92-136 33-106 33-165-11-114-33-165-53-97-92-135-83-69-135-91-106-34-165-34v0z m300 400h-600c-7 0-13 3-18 7s-7 11-7 18c0 7 2 13 7 18s11 7 18 7h600c7 0 13-2 18-7s7-11 7-18c0-7-3-13-7-18s-11-7-18-7v0z" horiz-adv-x="1000" />
<glyph glyph-name="uniE95E" unicode="&#xe82e;" d="M139 811c-22-22-42-47-59-73s-32-53-44-81-21-58-27-88-9-62-9-94c0-32 3-63 9-93s15-60 27-89 26-55 44-81 37-50 59-72c23-23 47-43 73-60s53-32 81-44 58-21 89-27 61-9 93-9c32 0 63 3 93 9s61 15 89 27 56 26 82 44 50 37 72 60c23 22 42 46 60 72s31 53 43 81 21 58 27 89 9 61 9 93c0 32-3 63-9 94s-15 59-27 88-26 56-43 81-37 51-60 73-47 42-72 60-53 31-82 43-58 21-89 27-61 9-93 9c-32 0-63-3-93-9s-60-15-89-27-55-26-81-43-50-38-73-60v0z m761-336c0-59-11-114-33-165s-53-97-92-135-83-69-135-91-106-34-165-34-114 11-165 34-97 52-135 91-69 83-92 135-33 106-33 165 11 114 33 165 53 97 92 136 83 69 135 91 107 33 165 33 114-11 165-33 97-53 135-91 69-84 92-136 33-106 33-165v0z m-442 293l-201-200c-5-5-7-11-7-18s2-12 7-17 11-8 18-8 13 3 18 8l157 157v-515c0-7 3-12 8-17s10-8 17-8 13 3 18 8 7 10 7 17v515l157-157c5-5 11-8 18-8s13 3 18 8c2 2 4 5 5 8s2 6 2 9 0 7-2 10-3 6-5 8l-200 200c-5 5-11 7-18 7s-13-2-17-7v0z" horiz-adv-x="1000" />
<glyph glyph-name="uniE95F" unicode="&#xe82f;" d="M811 140c23 22 42 46 60 72s31 53 43 81 21 58 27 89 9 61 9 93c0 32-3 63-9 94s-15 59-27 88-26 56-43 81-37 51-60 73-47 42-72 60-53 31-82 43-58 21-89 27-61 9-93 9c-32 0-63-3-93-9s-60-15-89-27-55-26-81-43-50-38-73-60-42-47-59-73-32-53-44-81-21-58-27-88-9-62-9-94c0-32 3-63 9-93s15-60 27-89 26-55 44-81 37-50 59-72c23-23 47-43 73-60s53-32 81-44 58-21 89-27 61-9 93-9c32 0 63 3 93 9s61 15 89 27 56 26 82 44 50 37 72 60v0z m-761 335c0 59 11 114 33 165s53 97 92 136 83 69 135 91 107 33 165 33 114-11 165-33 97-53 135-91 69-84 92-136 33-106 33-165-11-114-33-165-53-97-92-135-83-69-135-91-106-34-165-34-114 11-165 34-97 52-135 91-69 83-92 135-33 106-33 165v0z m443-292l200 200c5 5 7 11 7 17s-2 13-7 18-11 7-18 7-13-2-18-7l-157-157v514c0 7-2 13-7 18s-11 7-18 7-13-2-17-7-8-11-8-18v-514l-157 157c-5 5-11 7-18 7s-13-2-18-7c-2-2-4-5-5-8s-2-6-2-10 1-6 2-9 3-6 5-8l201-200c4-5 10-8 17-8s13 3 18 8v0z" horiz-adv-x="1000" />
<glyph glyph-name="uniE960" unicode="&#xe830;" d="M139 811c23 22 47 42 73 60s53 31 81 43 58 21 89 27 61 9 93 9c32 0 63-3 93-9s61-15 89-27 56-26 82-43 50-38 72-60 42-47 60-73 31-53 43-81 21-58 27-88 9-62 9-94c0-32-3-63-9-93s-15-60-27-89-26-55-43-81-37-50-60-72c-22-23-47-43-72-60s-53-32-82-44-58-21-89-27-61-9-93-9c-32 0-63 3-93 9s-60 15-89 27-55 26-81 44-50 37-73 60c-22 22-42 46-59 72s-32 53-44 81-21 58-27 89-9 61-9 93c0 32 3 63 9 94s15 59 27 88 26 56 44 81 37 51 59 73v0z m336-761c59 0 114 11 165 34s97 52 135 91 69 83 92 135 33 106 33 165-11 114-33 165-53 97-92 136-83 69-135 91-106 33-165 33-114-11-165-33-97-53-135-91-69-84-92-136-33-106-33-165 11-114 33-165 53-97 92-135 83-69 135-91 107-34 165-34v0z m-293 443l200 200c5 5 11 7 18 7s13-2 18-7 7-11 7-18-3-12-7-17l-158-158h515c7 0 13-2 18-7s7-11 7-18c0-7-3-13-7-18s-11-7-18-7h-515l158-157c4-5 7-11 7-18s-3-12-7-17c-3-3-5-5-9-6s-6-2-9-2-6 1-10 2-5 3-8 6l-200 199c-5 5-7 11-7 18s2 13 7 18v0z" horiz-adv-x="1000" />
<glyph glyph-name="uniE961" unicode="&#xe831;" d="M811 811c-22 22-47 42-72 60s-53 31-82 43-58 21-89 27-61 9-93 9c-32 0-63-3-93-9s-60-15-89-27-55-26-81-43-50-38-73-60-42-47-59-73-32-53-44-81-21-58-27-88-9-62-9-94c0-32 3-63 9-93s15-60 27-89 26-55 44-81 37-50 59-72c23-23 47-43 73-60s53-32 81-44 58-21 89-27 61-9 93-9c32 0 63 3 93 9s61 15 89 27 56 26 82 44 50 37 72 60c23 22 42 46 60 72s31 53 43 81 21 58 27 89 9 61 9 93c0 32-3 63-9 94s-15 59-27 88-26 56-43 81-37 51-60 73v0z m-336-761c-58 0-114 11-165 34s-97 52-135 91-69 83-92 135-33 106-33 165 11 114 33 165 53 97 92 136 83 69 135 91 107 33 165 33 114-11 165-33 97-53 135-91 69-84 92-136 33-106 33-165-11-114-33-165-53-97-92-135-83-69-135-91-106-34-165-34v0z m293 443l-200 200c-5 5-11 7-18 7s-13-2-18-7-7-11-7-18 2-12 7-17l158-158h-515c-7 0-13-2-18-7s-7-11-7-18c0-7 2-13 7-18s11-7 18-7h515l-158-157c-5-5-7-11-7-18s2-12 7-17c3-3 6-5 9-6s6-2 9-2c3 0 6 1 9 2s6 3 9 6l200 199c5 5 7 11 7 18s-2 13-7 18v0z" horiz-adv-x="1000" />
<glyph glyph-name="uniE962" unicode="&#xe832;" d="M139 811c-22-22-42-47-59-73s-32-53-44-81-21-58-27-88-9-62-9-94c0-32 3-63 9-93s15-60 27-89 26-55 44-81 37-50 59-72c23-23 47-43 73-60s53-32 81-44 58-21 89-27 61-9 93-9c32 0 63 3 93 9s61 15 89 27 56 26 82 44 50 37 72 60c23 22 42 46 60 72s31 53 43 81 21 58 27 89 9 61 9 93c0 32-3 63-9 94s-15 59-27 88-26 56-43 81-37 51-60 73-47 42-72 60-53 31-82 43-58 21-89 27-61 9-93 9c-32 0-63-3-93-9s-60-15-89-27-55-26-81-43-50-38-73-60v0z m761-336c0-59-11-114-33-165s-53-97-92-135-83-69-135-91-106-34-165-34-114 11-165 34-97 52-135 91-69 83-92 135-33 106-33 165 11 114 33 165 53 97 92 136 83 69 135 91 107 33 165 33 114-11 165-33 97-53 135-91 69-84 92-136 33-106 33-165v0z m-150-75c0-3-1-6-2-9s-3-6-5-8c-5-5-11-8-18-8s-13 3-17 8l-233 232-232-232c-5-5-11-8-18-8s-13 3-17 8-8 11-8 17 3 13 8 18l250 250c4 5 10 7 17 7s13-2 18-7l250-250c2-2 4-5 5-8s2-6 2-10v0z" horiz-adv-x="1000" />
<glyph glyph-name="uniE963" unicode="&#xe833;" d="M811 140c23 22 42 46 60 72s31 53 43 81 21 58 27 89 9 61 9 93c0 32-3 63-9 94s-15 59-27 88-26 56-43 81-37 51-60 73-47 42-72 60-53 31-82 43-58 21-89 27-61 9-93 9c-32 0-63-3-93-9s-60-15-89-27-55-26-81-43-50-38-73-60-42-47-59-73-32-53-44-81-21-58-27-88-9-62-9-94c0-32 3-63 9-93s15-60 27-89 26-55 44-81 37-50 59-72c23-23 47-43 73-60s53-32 81-44 58-21 89-27 61-9 93-9c32 0 63 3 93 9s61 15 89 27 56 26 82 44 50 37 72 60v0z m-761 335c0 59 11 114 33 165s53 97 92 136 83 69 135 91 107 33 165 33 114-11 165-33 97-53 135-91 69-84 92-136 33-106 33-165-11-114-33-165-53-97-92-135-83-69-135-91-106-34-165-34-114 11-165 34-97 52-135 91-69 83-92 135-33 106-33 165v0z m150 75c0 4 1 7 2 10s3 6 6 8c4 5 10 7 17 7s13-2 18-7l232-233 233 233c4 5 10 7 17 7s13-2 18-7 7-11 7-18-2-12-7-17l-250-250c-5-5-11-8-18-8s-13 3-17 8l-250 250c-3 2-5 5-6 8s-2 6-2 9v0z" horiz-adv-x="1000" />
<glyph glyph-name="uniE964" unicode="&#xe834;" d="M139 811c23 22 47 42 73 60s53 31 81 43 58 21 89 27 61 9 93 9c32 0 63-3 93-9s61-15 89-27 56-26 82-43 50-38 72-60 42-47 60-73 31-53 43-81 21-58 27-88 9-62 9-94c0-32-3-63-9-93s-15-60-27-89-26-55-43-81-37-50-60-72c-22-23-47-43-72-60s-53-32-82-44-58-21-89-27-61-9-93-9c-32 0-63 3-93 9s-60 15-89 27-55 26-81 44-50 37-73 60c-22 22-42 46-59 72s-32 53-44 81-21 58-27 89-9 61-9 93c0 32 3 63 9 94s15 59 27 88 26 56 44 81 37 51 59 73v0z m336-761c59 0 114 11 165 34s97 52 135 91 69 83 92 135 33 106 33 165-11 114-33 165-53 97-92 136-83 69-135 91-106 33-165 33-114-11-165-33-97-53-135-91-69-84-92-136-33-106-33-165 11-114 33-165 53-97 92-135 83-69 135-91 107-34 165-34v0z m75 150c3 0 6 1 9 2s6 3 9 5c5 5 7 11 7 18s-2 13-7 18l-233 232 233 232c5 5 7 11 7 18s-2 13-7 18-11 7-18 7-13-2-18-7l-250-250c-5-5-7-11-7-18s2-13 7-18l250-250c3-2 6-4 9-5s6-2 9-2v0z" horiz-adv-x="1000" />
<glyph glyph-name="uniE965" unicode="&#xe835;" d="M811 811c-22 22-47 42-72 60s-53 31-82 43-58 21-89 27-61 9-93 9c-32 0-63-3-93-9s-60-15-89-27-55-26-81-43-50-38-73-60-42-47-59-73-32-53-44-81-21-58-27-88-9-62-9-94c0-32 3-63 9-93s15-60 27-89 26-55 44-81 37-50 59-72c23-23 47-43 73-60s53-32 81-44 58-21 89-27 61-9 93-9c32 0 63 3 93 9s61 15 89 27 56 26 82 44 50 37 72 60c23 22 42 46 60 72s31 53 43 81 21 58 27 89 9 61 9 93c0 32-3 63-9 94s-15 59-27 88-26 56-43 81-37 51-60 73v0z m-336-761c-58 0-114 11-165 34s-97 52-135 91-69 83-92 135-33 106-33 165 11 114 33 165 53 97 92 136 83 69 135 91 107 33 165 33 114-11 165-33 97-53 135-91 69-84 92-136 33-106 33-165-11-114-33-165-53-97-92-135-83-69-135-91-106-34-165-34v0z m-75 150c-3 0-6 1-10 2s-5 3-8 5c-5 5-7 11-7 18s2 13 7 18l233 232-233 232c-5 5-7 11-7 18s2 13 7 18 11 7 18 7 13-2 18-7l250-250c4-5 7-11 7-18s-3-13-7-18l-250-250c-3-2-5-4-9-5s-6-2-9-2v0z" horiz-adv-x="1000" />
<glyph glyph-name="uniE798" unicode="&#xe836;" d="M875 900h-800c-21 0-38-7-53-22s-22-32-22-53v-500c0-20 7-38 22-53s32-22 53-22h375v-100h-175c-7 0-13-2-18-7s-7-11-7-18c0-7 2-13 7-18s11-7 18-7h400c7 0 13 2 18 7s7 11 7 18c0 7-2 13-7 18s-11 7-18 7h-175v100h375c21 0 39 8 53 22s22 33 22 53v500c0 21-7 39-22 53s-32 22-53 22v0z m25-575c0-7-2-13-7-17s-11-8-18-8h-800c-7 0-13 3-18 8s-7 10-7 17v500c0 7 2 13 7 18s11 7 18 7h800c7 0 13-2 18-7s7-11 7-18v-500 0z" horiz-adv-x="1000" />
<glyph glyph-name="uniE914" unicode="&#xe837;" d="M893 718l-225 225c-3 2-5 4-9 5s-6 2-9 2h-475c-21 0-38-7-53-22s-22-32-22-53v-800c0-20 7-38 22-53s32-22 53-22h650c21 0 38 8 53 22s22 33 22 53v625c0 3-1 7-2 10s-3 5-5 8v0z m-53-18h-165c-7 0-13 3-18 7s-7 11-7 18v165l190-190v0z m-15-650h-650c-7 0-13 3-18 8s-7 10-7 17v800c0 7 2 13 7 18s11 7 18 7h425v-175c0-20 7-38 22-53s32-22 53-22h175v-575c0-7-2-13-7-17s-11-8-18-8v0z m-100 450h-450c-7 0-13-2-18-7s-7-11-7-18v-300c0-7 2-12 7-17s11-8 18-8h450c7 0 13 3 18 8s7 10 7 17v300c0 7-2 13-7 18s-11 7-18 7v0z m-25-150h-100v100h100v-100 0z m-250 0v100h100v-100h-100v0z m100-50v-100h-100v100h100v0z m-150 150v-100h-100v100h100v0z m-100-150h100v-100h-100v100 0z m300-100v100h100v-100h-100v0z" horiz-adv-x="1000" />
<glyph glyph-name="uniE913" unicode="&#xe838;" d="M893 718l-225 225c-3 2-5 4-9 5s-6 2-9 2h-475c-21 0-38-7-53-22s-22-32-22-53v-800c0-20 7-38 22-53s32-22 53-22h650c21 0 38 8 53 22s22 33 22 53v625c0 3-1 7-2 10s-3 5-5 8v0z m-53-18h-165c-7 0-13 3-18 7s-7 11-7 18v165l190-190v0z m-15-650h-650c-7 0-13 3-18 8s-7 10-7 17v800c0 7 2 13 7 18s11 7 18 7h425v-175c0-20 7-38 22-53s32-22 53-22h175v-575c0-7-2-13-7-17s-11-8-18-8v0z m-400 200c-7 0-13 3-18 8s-7 11-7 17v100c0 7 2 13 7 18s11 7 18 7c7 0 13-2 18-7s7-11 7-18v-100c0-6-2-12-7-17s-11-8-18-8v0z m100 0c-7 0-13 3-18 8s-7 11-7 17v150c0 7 2 13 7 18s11 7 18 7 13-2 18-7 7-11 7-18v-150c0-6-3-12-7-17s-11-8-18-8v0z m100 0c-7 0-13 3-18 8s-7 11-7 17v50c0 7 3 13 7 18s11 7 18 7 13-2 18-7 7-11 7-18v-50c0-6-2-12-7-17s-11-8-18-8v0z m100-100h-450c-7 0-13 3-18 8s-7 10-7 17v350c0 7 2 13 7 18s11 7 18 7h450c7 0 13-2 18-7s7-11 7-18v-350c0-7-2-12-7-17s-11-8-18-8v0z m-425 50h400v300h-400v-300 0z" horiz-adv-x="1000" />
<glyph glyph-name="uniE90E" unicode="&#xe839;" d="M893 718l-225 225c-3 2-5 4-9 5s-6 2-9 2h-475c-21 0-38-7-53-22s-22-32-22-53v-800c0-20 7-38 22-53s32-22 53-22h650c21 0 38 8 53 22s22 33 22 53v625c0 3-1 7-2 10s-3 5-5 8v0z m-53-18h-165c-7 0-13 3-18 7s-7 11-7 18v165l190-190v0z m-15-650h-650c-7 0-13 3-18 8s-7 10-7 17v800c0 7 2 13 7 18s11 7 18 7h425v-175c0-20 7-38 22-53s32-22 53-22h175v-575c0-7-2-13-7-17s-11-8-18-8v0z m-500 750h-50c-7 0-13 3-18 8s-7 10-7 17 2 13 7 18 11 7 18 7h50c7 0 13-2 18-7s7-11 7-18-2-13-7-17-11-8-18-8v0z m50-50h-50c-7 0-13 3-18 8s-7 11-7 17 2 13 7 18 11 7 18 7h50c7 0 13-2 18-7s7-11 7-18-2-12-7-17-11-8-18-8v0z m-50-50h-50c-7 0-13 3-18 7s-7 11-7 18c0 7 2 13 7 18s11 7 18 7h50c7 0 13-2 18-7s7-11 7-18c0-7-2-13-7-18s-11-7-18-7v0z m50-50h-50c-7 0-13 3-18 8s-7 10-7 17 2 13 7 18 11 7 18 7h50c7 0 13-2 18-7s7-11 7-18-2-12-7-17-11-8-18-8v0z m-50-50h-50c-7 0-13 2-18 7s-7 11-7 18c0 7 2 13 7 18s11 7 18 7h50c7 0 13-2 18-7s7-11 7-18c0-7-2-13-7-18s-11-7-18-7v0z m50-50h-50c-7 0-13 3-18 8s-7 10-7 17 2 13 7 18 11 7 18 7h50c7 0 13-2 18-7s7-11 7-18-2-13-7-17-11-8-18-8v0z m-50-50c-21 0-38-7-53-22s-22-32-22-53v-200c0-20 7-38 22-53s32-22 53-22c21 0 38 8 53 22s22 33 22 53v200c0 21-7 39-22 53s-32 22-53 22v0z m0-50c7 0 13-2 18-7s7-11 7-18v-25h-50v25c0 7 2 13 7 18s11 7 18 7v0z m0-250c-7 0-13 3-18 7s-7 11-7 18v125h50v-125c0-7-2-13-7-18s-11-7-18-7v0z m50 650h-50c-7 0-13 2-18 7s-7 11-7 18c0 7 2 13 7 18s11 7 18 7h50c7 0 13-2 18-7s7-11 7-18c0-7-2-13-7-18s-11-7-18-7v0z m-50-350h-50c-7 0-13 3-18 8s-7 11-7 17 2 13 7 18 11 7 18 7h50c7 0 13-2 18-7s7-11 7-18-2-12-7-17-11-8-18-8v0z" horiz-adv-x="1000" />
</font>
</defs>
</svg>
